<svg width="101" height="40" viewBox="0 0 101 40" fill="none" xmlns="http://www.w3.org/2000/svg">
<path d="M57.6097 9.84391H55.1487C55.1487 8.21218 54.5005 6.64727 53.3467 5.49347C52.1929 4.33966 50.628 3.69145 48.9963 3.69145C47.3645 3.69145 45.7996 4.33966 44.6458 5.49347C43.492 6.64727 42.8438 8.21218 42.8438 9.84391H40.3828C40.3828 7.55948 41.2903 5.36862 42.9056 3.75329C44.521 2.13795 46.7118 1.23047 48.9963 1.23047C51.2807 1.23047 53.4715 2.13795 55.0869 3.75329C56.7022 5.36862 57.6097 7.55948 57.6097 9.84391Z" fill="white"/>
<path d="M63.7635 18.4573C63.1278 18.4595 62.5039 18.6293 61.9547 18.9495C61.623 18.4233 61.1636 17.9895 60.6194 17.6883C60.0751 17.3871 59.4636 17.2284 58.8416 17.2268C58.2058 17.2291 57.582 17.3988 57.0327 17.719C56.5851 17.0145 55.9119 16.4826 55.123 16.21C54.3342 15.9374 53.4762 15.9401 52.6891 16.2178V9.84382C52.6891 8.86478 52.3002 7.92584 51.6079 7.23355C50.9156 6.54127 49.9767 6.15234 48.9976 6.15234C48.0186 6.15234 47.0796 6.54127 46.3874 7.23355C45.6951 7.92584 45.3061 8.86478 45.3061 9.84382V23.5023L42.5622 21.6319C41.9331 21.1635 41.1685 20.9129 40.3842 20.9182C39.652 20.9164 38.9358 21.1324 38.3267 21.5387C37.7176 21.9449 37.2431 22.5232 36.9634 23.1998C36.6838 23.8765 36.6117 24.621 36.7563 25.3388C36.9009 26.0565 37.2557 26.7151 37.7755 27.2307L47.6195 36.2133C49.0131 37.4606 50.8188 38.1487 52.6891 38.1451H58.8416C61.126 38.1451 63.3168 37.2376 64.9322 35.6223C66.5475 34.007 67.455 31.8161 67.455 29.5317V22.1487C67.455 21.1697 67.0661 20.2308 66.3738 19.5385C65.6815 18.8462 64.7426 18.4573 63.7635 18.4573ZM64.994 29.5317C64.994 31.1634 64.3458 32.7283 63.192 33.8821C62.0382 35.0359 60.4733 35.6841 58.8416 35.6841H52.6891C51.4453 35.6992 50.2384 35.2619 49.2929 34.4537L39.5105 25.4711C39.2832 25.2419 39.155 24.9325 39.1537 24.6097C39.1537 24.3812 39.2173 24.1572 39.3375 23.9628C39.4576 23.7684 39.6295 23.6113 39.8339 23.5091C40.0383 23.4069 40.2671 23.3637 40.4947 23.3842C40.7223 23.4047 40.9397 23.4882 41.1225 23.6253L47.7671 28.1781V9.84382C47.7671 9.51747 47.8968 9.20449 48.1275 8.97373C48.3583 8.74297 48.6713 8.61333 48.9976 8.61333C49.324 8.61333 49.6369 8.74297 49.8677 8.97373C50.0985 9.20449 50.2281 9.51747 50.2281 9.84382V23.3792H52.6891V19.6878C52.6891 19.3614 52.8187 19.0484 53.0495 18.8177C53.2803 18.5869 53.5932 18.4573 53.9196 18.4573C54.2459 18.4573 54.5589 18.5869 54.7897 18.8177C55.0204 19.0484 55.1501 19.3614 55.1501 19.6878V23.3792H57.6111V20.9182C57.6111 20.5919 57.7407 20.2789 57.9715 20.0482C58.2022 19.8174 58.5152 19.6878 58.8416 19.6878C59.1679 19.6878 59.4809 19.8174 59.7116 20.0482C59.9424 20.2789 60.072 20.5919 60.072 20.9182V23.3792H62.533V22.1487C62.533 21.8224 62.6627 21.5094 62.8934 21.2786C63.1242 21.0479 63.4372 20.9182 63.7635 20.9182C64.0899 20.9182 64.4029 21.0479 64.6336 21.2786C64.8644 21.5094 64.994 21.8224 64.994 22.1487V29.5317Z" fill="white"/>
<path d="M101 9.5L96 6.61325V12.3868L101 9.5ZM67.5 10H96.5V9H67.5V10Z" fill="white"/>
<path d="M0 9.5L5 12.3868L5 6.61325L0 9.5ZM33.5 9L4.5 9L4.5 10L33.5 10L33.5 9Z" fill="white"/>
</svg>
